Coordinates
version=1
nRows=5
nColumns=46
inDegrees=yes

Units are S.I. units (second, meters, Newtons, ...)
Angles are in degrees.

endheader
time	pelvis_tilt	pelvis_list	pelvis_rotation	pelvis_tx	pelvis_ty	pelvis_tz	bb_angle	bb_tx	bb_ty	bb_tz	hip_flexion_r	hip_adduction_r	hip_rotation_r	knee_angle_r	knee_angle_r_beta	ankle_angle_r	subtalar_angle_r	mtp_angle_r	crank_angle_r	hip_flexion_l	hip_adduction_l	hip_rotation_l	knee_angle_l	knee_angle_l_beta	ankle_angle_l	subtalar_angle_l	mtp_angle_l	crank_angle_l	lumbar_extension	lumbar_bending	lumbar_rotation	arm_flex_r	arm_add_r	arm_rot_r	elbow_flex_r	pro_sup_r	wrist_flex_r	wrist_dev_r	arm_flex_l	arm_add_l	arm_rot_l	elbow_flex_l	pro_sup_l	wrist_flex_l	wrist_dev_l
      5.00500000	    -26.41140993	    -13.47885494	     -1.31932849	      0.38616042	      1.07616752	     -0.21232046	      0.00000000	      0.50000000	      0.00000000	      0.25000000	     60.88899518	      5.66377033	     -8.50262853	    103.81665471	      1.81194244	     12.91864635	      1.65532278	      0.00000000	      0.00000000	     43.22409493	    -18.95040962	      5.15377637	     28.91056706	      0.50458458	     -7.22519623	     -1.43379371	      0.00000000	      0.00000000	    -43.34015964	      5.58068673	      0.75411109	     66.20978344	      7.82988635	     24.44855474	     21.05389580	     46.74506939	      0.00000000	      0.00000000	     42.17047336	    -22.48285986	     11.28664789	     72.60606392	     49.53603484	      0.00000000	      0.00000000
      5.01000000	    -26.63139665	    -14.22040034	     -2.44452783	      0.38612748	      1.07612574	     -0.21367943	      0.00000000	      0.50000000	      0.00000000	      0.25000000	     62.39262684	      6.49118802	     -8.64756828	    105.04792226	      1.83343212	     13.80015038	      2.24287786	      0.00000000	      0.00000000	     41.91280674	    -20.29573340	      4.21993356	     27.27419154	      0.47602444	     -8.89399636	     -1.07613935	      0.00000000	      0.00000000	    -43.29098031	      6.24994933	      1.70030831	     66.26778965	      8.11906950	     24.44200616	     21.24215763	     46.74690080	      0.00000000	      0.00000000	     41.65324160	    -22.85267621	     11.24978117	     72.42738587	     49.49871273	      0.00000000	      0.00000000
      5.01500000	    -27.00076637	    -14.85082241	     -3.54062857	      0.38610336	      1.07592540	     -0.21537403	      0.00000000	      0.50000000	      0.00000000	      0.25000000	     64.03138393	      7.12121920	     -8.81238864	    106.18364947	      1.85325430	     14.56650164	      2.68409548	      0.00000000	      0.00000000	     40.70827093	    -21.44881207	      3.34178938	     25.72751627	      0.44902987	    -10.18313850	     -0.70515281	      0.00000000	      0.00000000	    -43.15080747	      6.94677567	      2.57061346	     66.43722444	      8.37858383	     24.44331253	     21.51741790	     46.76769694	      0.00000000	      0.00000000	     41.25511388	    -23.02756518	     11.20771300	     72.20076107	     49.45488132	      0.00000000	      0.00000000
      5.02000000	    -27.47710440	    -15.40788428	     -4.89671321	      0.38637263	      1.07594152	     -0.21661050	      0.00000000	      0.50000000	      0.00000000	      0.25000000	     65.75235895	      7.93930853	     -8.85600212	    107.11810768	      1.86956367	     15.20301182	      3.25785775	      0.00000000	      0.00000000	     39.45964866	    -22.73724694	      1.99033086	     24.19179058	      0.42222640	    -11.64353864	     -0.26235969	      0.00000000	      0.00000000	    -42.99936888	      7.50225090	      3.54169247	     66.35430266	      8.79778308	     24.47364307	     21.78685115	     46.80071931	      0.00000000	      0.00000000	     40.76260090	    -23.11547629	     11.18347738	     71.78194449	     49.38361865	      0.00000000	      0.00000000
      5.02500000	    -27.64537686	    -15.57402085	     -6.46836794	      0.38702431	      1.07645445	     -0.21744663	      0.00000000	      0.50000000	      0.00000000	      0.25000000	     67.15087605	      8.82048237	     -8.39248534	    108.00945429	      1.88512060	     15.80566427	      4.50794249	      0.00000000	      0.00000000	     37.68354743	    -23.91556921	     -0.46794570	     22.84004682	      0.39863402	    -13.10439608	      0.63420501	      0.00000000	      0.00000000	    -42.90493450	      7.33655414	      4.48853952	     65.81926257	      8.90073178	     24.18858228	     22.37387551	     46.81326201	      0.00000000	      0.00000000	     40.34677579	    -22.73703542	     11.17408622	     70.79314671	     49.21634462	      0.00000000	      0.00000000
